# xmcd
#
# Track frame offsets: 
#        150
#        22920
#        41828
#        56448
#        83161
#        107050
#        125602
#        144236
#        162718
#        181615
#        204320
#        233718
#        258202
#        277987
#
# Disc length: 4186 seconds
#
# Revision: 1
# Processed by: cddbd v1.5.2PL0 Copyright (c) Steve Scherf et al.
# Submitted via: ExactAudioCopy v1.0b3
#
DISCID=b410580e
DTITLE=Various Artist - This is Concord 2006
DYEAR=2006
DGENRE=Jazz
TTITLE0=George Benson - Al Jarreau - Summer breeze
TTITLE1=Sérgio Mendes - John Legend - Please, baby, don't
TTITLE2=Taylor Eigsti - Love for sale
TTITLE3=Lee Ritenour - Lovely day
TTITLE4=Scott Hamilton - Man with a horn
TTITLE5=Ray Charles - Count Basie Orchestra - Every Saturday night
TTITLE6=Willie Bobo - A koko
TTITLE7=Soulive - Chaka Khan - Back again
TTITLE8=Erin Boheme - Don't be something you ain't
TTITLE9=Christian Scott - Like this
TTITLE10=Joey DeFrancesco - Little B's poem
TTITLE11=Poncho Sanchez - Watermelon man [Dan The Automator remix]
TTITLE12=Karrin Allyson - All you need to say
TTITLE13=Tim Ries - Norah Jones - Wild horses
EXTD=YEAR: 2006
EXTT0=
EXTT1=
EXTT2=
EXTT3=
EXTT4=
EXTT5=
EXTT6=
EXTT7=
EXTT8=
EXTT9=
EXTT10=
EXTT11=
EXTT12=
EXTT13=
PLAYORDER=
